<?xml version="1.0" encoding="utf-8"?>
<!-- Generator: Adobe Illustrator 16.0.0, SVG Export Plug-In . SVG Version: 6.00 Build 0)  -->
<!DOCTYPE svg PUBLIC "-//W3C//DTD SVG 1.1//EN" "http://www.w3.org/Graphics/SVG/1.1/DTD/svg11.dtd" [
	<!ENTITY ns_extend "http://ns.adobe.com/Extensibility/1.0/">
	<!ENTITY ns_ai "http://ns.adobe.com/AdobeIllustrator/10.0/">
	<!ENTITY ns_graphs "http://ns.adobe.com/Graphs/1.0/">
	<!ENTITY ns_vars "http://ns.adobe.com/Variables/1.0/">
	<!ENTITY ns_imrep "http://ns.adobe.com/ImageReplacement/1.0/">
	<!ENTITY ns_sfw "http://ns.adobe.com/SaveForWeb/1.0/">
	<!ENTITY ns_custom "http://ns.adobe.com/GenericCustomNamespace/1.0/">
	<!ENTITY ns_adobe_xpath "http://ns.adobe.com/XPath/1.0/">
]>
<svg version="1.1" id="Layer_1" xmlns:x="&ns_extend;" xmlns:i="&ns_ai;" xmlns:graph="&ns_graphs;"
	 xmlns="http://www.w3.org/2000/svg" xmlns:xlink="http://www.w3.org/1999/xlink" x="0px" y="0px" width="176.09px"
	 height="176.09px" viewBox="0 0 176.09 176.09" enable-background="new 0 0 176.09 176.09" xml:space="preserve">
<metadata>
	<sfw  xmlns="&ns_sfw;">
		<slices></slices>
		<sliceSourceBounds  width="176.09" height="176.09" y="-367.865" x="391.729" bottomLeftOrigin="true"></sliceSourceBounds>
	</sfw>
</metadata>
<g>
	<path fill="#E6E7E8" d="M88.045,0C39.497,0,0,39.497,0,88.045c0,48.548,39.497,88.045,88.045,88.045
		c48.548,0,88.045-39.497,88.045-88.045C176.09,39.497,136.593,0,88.045,0z M88.045,161.166c-40.319,0-73.121-32.802-73.121-73.121
		s32.802-73.121,73.121-73.121s73.121,32.802,73.121,73.121S128.364,161.166,88.045,161.166z"/>
	<path fill="#8BC53F" d="M128.048,54.004c-2.279,0-4.41,0.875-6.01,2.474l-45.107,45.665L58.696,86.714
		c-1.498-1.268-3.421-1.965-5.415-1.965c-2.548,0-4.942,1.104-6.571,3.028c-1.457,1.722-2.142,3.933-1.927,6.224
		c0.212,2.264,1.274,4.311,2.995,5.766l24.242,20.395c1.512,1.26,3.395,1.926,5.446,1.926c2.28,0,4.41-0.875,6.009-2.473
		l50.572-51.148c3.307-3.308,3.307-8.69-0.001-11.998C132.459,54.879,130.329,54.004,128.048,54.004z"/>
</g>
</svg>
