<?xml version="1.0" encoding="utf-8"?>
<!-- Generator: Adobe Illustrator 16.0.0, SVG Export Plug-In . SVG Version: 6.00 Build 0)  -->
<!DOCTYPE svg PUBLIC "-//W3C//DTD SVG 1.1//EN" "http://www.w3.org/Graphics/SVG/1.1/DTD/svg11.dtd">
<svg version="1.1" id="Layer_1" xmlns="http://www.w3.org/2000/svg" xmlns:xlink="http://www.w3.org/1999/xlink" x="0px" y="0px"
	 width="326.559px" height="74.631px" viewBox="0 0 326.559 74.631" enable-background="new 0 0 326.559 74.631"
	 xml:space="preserve">
<g>
	<g>
		<path fill-rule="evenodd" clip-rule="evenodd" d="M169.727,29.306h-0.781c-1.611-1.465-3.615-2.589-6.008-3.321
			c-2.394-0.733-5.275-1.075-8.548-1.075c-5.763,0-10.208,1.075-13.432,3.224c-3.272,2.149-4.884,5.128-4.884,8.938
			c0,3.761,1.709,6.789,5.079,9.036c3.371,2.246,7.864,3.37,13.53,3.37c2.93,0,5.666-0.343,8.254-1.026
			c2.54-0.635,4.981-1.71,7.277-3.076l0.83,0.194c-0.195,0.538-0.391,1.075-0.488,1.612c-0.098,0.586-0.195,1.123-0.245,1.71
			c-2.832,0.879-5.616,1.514-8.4,1.953c-2.833,0.439-5.714,0.636-8.743,0.636c-7.912,0-14.115-1.271-18.608-3.811
			s-6.74-6.057-6.74-10.403c0-4.396,2.344-7.814,7.082-10.354c4.738-2.491,11.234-3.761,19.488-3.761
			c2.833,0,5.715,0.146,8.548,0.537c2.783,0.342,5.714,0.879,8.742,1.612c-0.488,0.537-0.879,1.172-1.221,1.807
			C170.167,27.742,169.922,28.524,169.727,29.306z"/>
		<path fill-rule="evenodd" clip-rule="evenodd" d="M111.702,23.591c1.124,2.296,3.37,5.861,6.74,10.599
			c3.37,4.688,7.619,10.306,12.699,16.753c-0.733-0.098-1.465-0.098-2.198-0.146c-0.781,0-1.563-0.048-2.442-0.048
			c-0.83,0-1.66,0.048-2.393,0.048c-0.732,0.049-1.465,0.049-2.149,0.146c-1.221-2.393-3.321-5.715-6.251-10.11l-0.831-1.221
			l-7.717-11.527l-7.033,10.208c-1.856,2.686-3.37,5.031-4.591,7.033c-1.172,2.052-2.198,3.908-2.979,5.617l-0.195-0.049
			c-1.368-0.098-2.442-0.146-3.126-0.146c-0.439,0-0.83,0.048-1.27,0.048s-1.124,0.049-2.002,0.146
			c4.347-5.128,8.206-10.013,11.624-14.652c3.468-4.64,6.301-8.89,8.547-12.699c0.489,0.049,0.977,0.098,1.417,0.098
			c0.44,0.049,0.879,0.098,1.319,0.098c0.44,0,0.928-0.049,1.368-0.049C110.676,23.688,111.214,23.64,111.702,23.591z"/>
		<path fill-rule="evenodd" clip-rule="evenodd" d="M307.121,23.591c1.074,2.296,3.37,5.861,6.69,10.599
			c3.371,4.688,7.62,10.306,12.748,16.753c-0.732-0.098-1.465-0.098-2.246-0.146c-0.732,0-1.563-0.048-2.394-0.048
			c-0.879,0-1.661,0.048-2.393,0.048c-0.782,0.049-1.466,0.049-2.149,0.146c-1.27-2.393-3.321-5.715-6.252-10.11l-0.879-1.221
			l-7.718-11.527l-7.033,10.208c-1.807,2.686-3.321,5.031-4.542,7.033c-1.222,2.052-2.246,3.908-3.028,5.617l-0.195-0.049
			c-1.367-0.098-2.394-0.146-3.126-0.146c-0.391,0-0.83,0.048-1.27,0.048s-1.124,0.049-1.954,0.146
			c4.298-5.128,8.205-10.013,11.625-14.652c3.418-4.64,6.251-8.89,8.498-12.699c0.489,0.049,0.977,0.098,1.416,0.098
			c0.44,0.049,0.88,0.098,1.368,0.098c0.439,0,0.879-0.049,1.318-0.049C306.094,23.688,306.583,23.64,307.121,23.591z"/>
		<path fill-rule="evenodd" clip-rule="evenodd" d="M187.31,25.789h-4.396c-1.026,0-2.442,0.048-4.201,0.146
			c-1.758,0.098-3.857,0.244-6.398,0.44c0.147-0.244,0.195-0.488,0.244-0.684c0.05-0.244,0.098-0.488,0.098-0.732
			c0-0.293-0.048-0.537-0.098-0.733c-0.049-0.244-0.146-0.439-0.244-0.635c3.273,0.049,6.496,0.098,9.573,0.146
			s6.105,0.098,9.036,0.098c3.419,0,6.594-0.049,9.622-0.098s6.008-0.098,8.938-0.146c-0.097,0.391-0.195,0.684-0.195,0.879
			c-0.048,0.195-0.048,0.391-0.048,0.538c0,0.195,0,0.391,0.048,0.635c0.049,0.245,0.099,0.489,0.195,0.733
			c-2.54-0.196-4.688-0.342-6.495-0.44c-1.808-0.098-3.272-0.146-4.396-0.146h-4.054c-0.098,1.025-0.195,1.905-0.244,2.637
			c-0.098,0.732-0.098,1.368-0.098,1.954c0,5.324,0.049,9.622,0.244,12.992c0.147,3.369,0.343,5.91,0.685,7.57
			c-0.587-0.098-1.222-0.146-1.905-0.146c-0.684-0.048-1.417-0.048-2.296-0.048c-0.831,0-1.611,0-2.246,0.048
			c-0.685,0-1.319,0.049-1.954,0.146c0.342-1.808,0.537-4.103,0.684-6.887c0.146-2.832,0.195-6.35,0.195-10.599
			c0-1.905,0-3.419-0.049-4.494C187.505,27.84,187.408,26.814,187.31,25.789z"/>
		<path fill-rule="evenodd" clip-rule="evenodd" d="M213.293,50.942c0.294-2.051,0.489-4.201,0.636-6.496
			c0.195-2.246,0.244-4.64,0.244-7.131c0-2.882-0.049-5.421-0.244-7.619c-0.146-2.247-0.342-4.298-0.636-6.105
			c0.733,0.049,1.466,0.098,2.198,0.146c0.685,0,1.368,0.049,2.052,0.049s1.367-0.049,2.051-0.049
			c0.733-0.049,1.466-0.098,2.248-0.146c-0.245,1.709-0.489,3.614-0.587,5.715c-0.146,2.149-0.244,4.786-0.244,8.01
			c0,2.783,0.098,5.323,0.244,7.521c0.098,2.198,0.342,4.25,0.587,6.105c-0.587-0.098-1.222-0.146-1.906-0.146
			c-0.684-0.048-1.464-0.048-2.393-0.048c-0.88,0-1.66,0-2.344,0.048C214.466,50.796,213.88,50.845,213.293,50.942z"/>
		<path fill-rule="evenodd" clip-rule="evenodd" d="M242.844,50.942c-1.124-2.344-3.371-5.861-6.741-10.647
			c-3.37-4.689-7.57-10.257-12.698-16.704c0.732,0.049,1.465,0.049,2.247,0.098c0.731,0,1.514,0.049,2.393,0.049
			s1.661-0.049,2.394-0.049c0.781-0.049,1.465-0.049,2.149-0.098c1.27,2.344,3.321,5.666,6.251,10.062l0.83,1.221l7.767,11.527
			l6.984-10.208c1.856-2.638,3.37-4.982,4.592-7.034c1.221-2.051,2.197-3.907,3.027-5.568h0.146
			c1.417,0.098,2.442,0.146,3.176,0.146c0.39,0,0.83,0,1.269-0.049c0.44,0,1.075-0.049,1.955-0.098
			c-4.299,5.08-8.206,9.964-11.625,14.604c-3.419,4.64-6.252,8.889-8.548,12.747c-0.488-0.098-0.928-0.146-1.367-0.146
			c-0.439-0.048-0.929-0.048-1.368-0.048c-0.438,0-0.879,0-1.367,0.048C243.87,50.796,243.381,50.845,242.844,50.942z"/>
		<path fill-rule="evenodd" clip-rule="evenodd" d="M270.977,50.942c0.293-2.051,0.488-4.201,0.635-6.496
			c0.146-2.246,0.244-4.64,0.244-7.131c0-2.882-0.098-5.421-0.244-7.619c-0.146-2.247-0.342-4.298-0.635-6.105
			c0.732,0.049,1.465,0.098,2.198,0.146c0.684,0,1.367,0.049,2.051,0.049s1.368-0.049,2.052-0.049
			c0.684-0.049,1.465-0.098,2.247-0.146c-0.245,1.709-0.489,3.614-0.636,5.715c-0.146,2.149-0.195,4.786-0.195,8.01
			c0,2.783,0.049,5.323,0.195,7.521s0.391,4.25,0.636,6.105c-0.587-0.098-1.221-0.146-1.905-0.146
			c-0.684-0.048-1.515-0.048-2.394-0.048s-1.66,0-2.344,0.048C272.15,50.796,271.514,50.845,270.977,50.942z"/>
	</g>
	<g>
		<path fill-rule="evenodd" clip-rule="evenodd" fill="#00ADEE" d="M37.364,0C57.927,0,74.68,16.802,74.68,37.315
			S57.927,74.631,37.364,74.631C16.801,74.631,0,57.829,0,37.315S16.801,0,37.364,0z"/>
		<path fill-rule="evenodd" clip-rule="evenodd" fill="#FFFFFF" d="M47.914,37.315c-1.612-2.1-2.979-4.054-4.298-5.91
			c-3.664-5.177-6.105-9.036-7.327-11.576c-0.586,0.098-1.123,0.146-1.612,0.146c-0.488,0.049-0.977,0.049-1.465,0.049
			s-0.977,0-1.465-0.049c-0.488,0-1.026-0.098-1.563-0.146c-2.442,4.2-5.519,8.792-9.28,13.871
			c-3.712,5.03-7.913,10.354-12.65,15.923c0.977-0.098,1.71-0.146,2.149-0.146c0.489-0.049,0.977-0.049,1.417-0.049
			c0.732,0,1.905,0.049,3.419,0.146l0.195,0.049c0.831-1.856,1.954-3.858,3.272-6.105c1.319-2.198,2.979-4.737,4.982-7.62
			l7.619-11.136l8.401,12.552H47.914z"/>
		<path fill-rule="evenodd" clip-rule="evenodd" fill="#FFFFFF" d="M26.814,37.315c1.563,2.1,2.931,4.055,4.298,5.91
			c3.614,5.178,6.105,9.036,7.326,11.575c0.537-0.097,1.075-0.146,1.563-0.146c0.538-0.05,1.025-0.05,1.514-0.05
			c0.488,0,0.928,0,1.417,0.05c0.488,0,1.026,0.097,1.563,0.146c2.442-4.2,5.519-8.791,9.28-13.871
			c3.712-5.031,7.961-10.354,12.65-15.922c-0.928,0.098-1.661,0.146-2.149,0.146c-0.488,0.049-0.928,0.049-1.416,0.049
			c-0.733,0-1.856-0.049-3.37-0.146l-0.195-0.049c-0.879,1.856-2.003,3.858-3.273,6.105c-1.367,2.198-2.979,4.738-5.031,7.619
			l-7.619,11.137l-8.401-12.553H26.814z"/>
	</g>
</g>
</svg>
