<?xml version="1.0" encoding="utf-8"?>
<!-- Generator: Adobe Illustrator 16.0.0, SVG Export Plug-In . SVG Version: 6.00 Build 0)  -->
<!DOCTYPE svg PUBLIC "-//W3C//DTD SVG 1.1//EN" "http://www.w3.org/Graphics/SVG/1.1/DTD/svg11.dtd" [
	<!ENTITY ns_extend "http://ns.adobe.com/Extensibility/1.0/">
	<!ENTITY ns_ai "http://ns.adobe.com/AdobeIllustrator/10.0/">
	<!ENTITY ns_graphs "http://ns.adobe.com/Graphs/1.0/">
	<!ENTITY ns_vars "http://ns.adobe.com/Variables/1.0/">
	<!ENTITY ns_imrep "http://ns.adobe.com/ImageReplacement/1.0/">
	<!ENTITY ns_sfw "http://ns.adobe.com/SaveForWeb/1.0/">
	<!ENTITY ns_custom "http://ns.adobe.com/GenericCustomNamespace/1.0/">
	<!ENTITY ns_adobe_xpath "http://ns.adobe.com/XPath/1.0/">
]>
<svg version="1.1" id="Layer_1" xmlns:x="&ns_extend;" xmlns:i="&ns_ai;" xmlns:graph="&ns_graphs;"
	 xmlns="http://www.w3.org/2000/svg" xmlns:xlink="http://www.w3.org/1999/xlink" x="0px" y="0px" width="42.754px"
	 height="48.848px" viewBox="0 0 42.754 48.848" enable-background="new 0 0 42.754 48.848" xml:space="preserve">
<metadata>
	<sfw  xmlns="&ns_sfw;">
		<slices></slices>
		<sliceSourceBounds  height="47.925" width="41.934" y="-322.135" x="400.872" bottomLeftOrigin="true"></sliceSourceBounds>
	</sfw>
</metadata>
<g>
	<g>
		<path fill="#FFFFFF" d="M41.851,5.138H30.985v-1.22c0-0.279-0.245-0.522-0.521-0.522c-0.281,0-0.523,0.243-0.523,0.522V5.66v8.115
			v3.448h-1.847l0,0l0,0H23.81V7.61c0-2.055-1.671-3.726-3.726-3.726H8.695v-2.96C8.695,0.644,8.45,0.4,8.171,0.4
			c-0.276,0-0.521,0.244-0.521,0.523v2.96H6.291c-2.055,0-3.726,1.671-3.726,3.726v11.876c-1.324,1.358-2.125,3.205-2.125,5.225
			v7.977c0,1.392,0.904,2.576,2.125,2.994v0.696c0,1.776,1.254,3.239,2.889,3.622v2.855c-1.635,0.245-2.889,1.673-2.889,3.379v1.567
			c0,0.279,0.242,0.522,0.521,0.522h9.055c0.279,0,0.524-0.243,0.524-0.522v-7.696h1.043v7.696c0,0.279,0.245,0.522,0.521,0.522
			h9.056c0.279,0,0.523-0.243,0.523-0.522v-1.567c0-0.904-0.349-1.775-1.011-2.402c-0.521-0.522-1.185-0.836-1.88-0.977V40
			c1.637-0.383,2.891-1.879,2.891-3.622V23.283h6.164v22.43c0,0.279,0.245,0.522,0.524,0.522c0.278,0,0.521-0.243,0.521-0.522
			V23.178c0.487-0.138,0.941-0.382,1.288-0.767c0.558-0.557,0.871-1.288,0.871-2.054c0.036-0.801-0.279-1.567-0.871-2.159
			c-0.383-0.383-0.837-0.662-1.322-0.835v-3.065h10.865c0.279,0,0.523-0.244,0.523-0.522V5.66
			C42.374,5.382,42.166,5.138,41.851,5.138z"/>
	</g>
	<g>
		<path d="M17.401,27.741v-3.691c0-0.279-0.242-0.521-0.521-0.521H9.495c-0.278,0-0.521,0.243-0.521,0.521v3.691
			c0,0.279,0.243,0.523,0.521,0.523h7.385C17.192,28.264,17.401,28.02,17.401,27.741z M16.355,27.219h-6.339v-2.647h6.375v2.647
			H16.355z"/>
		<path d="M13.188,29.795H9.495c-0.278,0-0.521,0.244-0.521,0.521c0,0.281,0.243,0.524,0.521,0.524h3.692
			c0.276,0,0.521-0.243,0.521-0.524C13.709,30.04,13.464,29.795,13.188,29.795z"/>
		<path d="M16.88,29.795h-0.871c-0.279,0-0.523,0.244-0.523,0.521c0,0.281,0.244,0.524,0.523,0.524h0.871
			c0.279,0,0.521-0.243,0.521-0.524C17.401,30.04,17.192,29.795,16.88,29.795z"/>
		<path d="M41.851,5.138H30.985v-1.22c0-0.279-0.245-0.522-0.521-0.522c-0.281,0-0.523,0.243-0.523,0.522V5.66v8.115v3.448h-1.847
			l0,0l0,0H23.81V7.61c0-2.055-1.671-3.726-3.726-3.726H8.695v-2.96C8.695,0.644,8.45,0.4,8.171,0.4
			c-0.276,0-0.521,0.244-0.521,0.523v2.96H6.291c-2.055,0-3.726,1.671-3.726,3.726v11.876c-1.324,1.358-2.125,3.205-2.125,5.225
			v7.977c0,1.392,0.904,2.576,2.125,2.994v0.696c0,1.776,1.254,3.239,2.889,3.622v2.855c-1.635,0.245-2.889,1.673-2.889,3.379v1.567
			c0,0.279,0.242,0.522,0.521,0.522h9.055c0.279,0,0.524-0.243,0.524-0.522v-7.696h1.043v7.696c0,0.279,0.245,0.522,0.521,0.522
			h9.056c0.279,0,0.523-0.243,0.523-0.522v-1.567c0-0.904-0.349-1.775-1.011-2.402c-0.521-0.522-1.185-0.836-1.88-0.977V40
			c1.637-0.383,2.891-1.879,2.891-3.622V23.283h6.164v22.43c0,0.279,0.245,0.522,0.524,0.522c0.278,0,0.521-0.243,0.521-0.522
			V23.178c0.487-0.138,0.941-0.382,1.288-0.767c0.558-0.557,0.871-1.288,0.871-2.054c0.036-0.801-0.279-1.567-0.871-2.159
			c-0.383-0.383-0.837-0.662-1.322-0.835v-3.065h10.865c0.279,0,0.523-0.244,0.523-0.522V5.66
			C42.374,5.382,42.166,5.138,41.851,5.138z M3.608,7.61c0-1.497,1.22-2.682,2.683-2.682h13.793c1.497,0,2.681,1.219,2.681,2.682
			v9.613h-2.578c0.419-0.94,0.664-1.987,0.664-3.066c0-4.248-3.449-7.696-7.699-7.696c-4.248,0-7.697,3.448-7.697,7.696
			c0,1.185,0.279,2.3,0.732,3.275c-0.941,0.208-1.812,0.627-2.578,1.185V7.61z M19.806,14.123c0,3.658-2.996,6.653-6.654,6.653
			c-3.656,0-6.651-2.995-6.651-6.653c0-3.657,2.995-6.652,6.651-6.652C16.81,7.471,19.806,10.466,19.806,14.123z M1.485,32.688
			v-1.395h3.969v1.498c0,0.523-0.209,1.045-0.592,1.393c-0.417,0.418-0.975,0.629-1.566,0.594
			C2.286,34.672,1.485,33.767,1.485,32.688z M3.608,36.378v-0.592c0.698-0.035,1.324-0.278,1.846-0.731v3.866
			C4.375,38.574,3.608,37.563,3.608,36.378z M12.666,39.06v-1.776c0-0.278,0.173-0.486,0.381-0.557c0.175-0.035,0.386,0,0.487,0.141
			c0.104,0.104,0.141,0.242,0.141,0.383v1.845h-1.009V39.06z M22.765,36.378c0,1.185-0.767,2.195-1.846,2.543V23.283h1.846V36.378z
			 M27.572,22.238h-7.175c-0.279,0-0.524,0.244-0.524,0.523v20.062h-1.322c-0.278,0-0.523,0.243-0.523,0.521
			c0,0.279,0.245,0.523,0.523,0.523h1.847c0.628,0,1.217,0.242,1.671,0.696c0.454,0.451,0.696,1.044,0.696,1.671v1.046h-8.01V37.213
			c0-0.416-0.175-0.8-0.454-1.113c-0.383-0.383-0.938-0.558-1.462-0.418c-0.697,0.175-1.185,0.836-1.185,1.568v10.03h-8.01v-1.046
			c0-1.322,1.079-2.367,2.368-2.367h1.812c0.279,0,0.521-0.244,0.521-0.523c0-0.278-0.242-0.521-0.521-0.521H6.5V32.756V24.85
			c0-0.278-0.243-0.521-0.521-0.521c-0.279,0-0.524,0.244-0.524,0.521v5.365H1.485v-5.503c0-3.135,2.264-5.782,5.26-6.338
			c1.393,2.088,3.726,3.447,6.406,3.447c2.717,0,5.121-1.427,6.514-3.586h7.941v4.005H27.572z M31.577,18.895
			c0.384,0.383,0.592,0.871,0.559,1.394c0,0.523-0.211,0.975-0.592,1.357c-0.386,0.384-0.871,0.593-1.396,0.593h-1.532v-3.97h1.428
			C30.636,18.269,31.194,18.511,31.577,18.895z M41.329,13.252H30.985v-7.07h10.344V13.252z"/>
		<path d="M13.188,9.943c-3.449,0-5.504,1.671-5.504,4.423c0,3.031,2.474,5.503,5.504,5.503s5.504-2.472,5.504-5.503
			C18.691,11.581,16.635,9.943,13.188,9.943z M13.188,18.825c-2.472,0-4.458-1.985-4.458-4.458c0-3.065,3.1-3.378,4.458-3.378
			s4.459,0.313,4.459,3.378C17.646,16.84,15.659,18.825,13.188,18.825z"/>
	</g>
</g>
</svg>
