<?xml version="1.0" encoding="utf-8"?>
<!-- Generator: Adobe Illustrator 16.0.0, SVG Export Plug-In . SVG Version: 6.00 Build 0)  -->
<!DOCTYPE svg PUBLIC "-//W3C//DTD SVG 1.1//EN" "http://www.w3.org/Graphics/SVG/1.1/DTD/svg11.dtd" [
	<!ENTITY ns_extend "http://ns.adobe.com/Extensibility/1.0/">
	<!ENTITY ns_ai "http://ns.adobe.com/AdobeIllustrator/10.0/">
	<!ENTITY ns_graphs "http://ns.adobe.com/Graphs/1.0/">
	<!ENTITY ns_vars "http://ns.adobe.com/Variables/1.0/">
	<!ENTITY ns_imrep "http://ns.adobe.com/ImageReplacement/1.0/">
	<!ENTITY ns_sfw "http://ns.adobe.com/SaveForWeb/1.0/">
	<!ENTITY ns_custom "http://ns.adobe.com/GenericCustomNamespace/1.0/">
	<!ENTITY ns_adobe_xpath "http://ns.adobe.com/XPath/1.0/">
]>
<svg version="1.1" id="Layer_1" xmlns:x="&ns_extend;" xmlns:i="&ns_ai;" xmlns:graph="&ns_graphs;"
	 xmlns="http://www.w3.org/2000/svg" xmlns:xlink="http://www.w3.org/1999/xlink" x="0px" y="0px" width="41.167px"
	 height="40.91px" viewBox="0 0 41.167 40.91" enable-background="new 0 0 41.167 40.91" xml:space="preserve">
<metadata>
	<sfw  xmlns="&ns_sfw;">
		<slices></slices>
		<sliceSourceBounds  height="40.27" width="40.365" y="-317.84" x="400.984" bottomLeftOrigin="true"></sliceSourceBounds>
	</sfw>
</metadata>
<g>
	<path fill="#FFFFFF" d="M20.583,1.195c-10.656,0-19.305,8.647-19.305,19.301c0,2.971,0.699,5.768,1.835,8.213l1.398,2.359
		c3.495,5.238,9.349,8.646,16.071,8.646c6.813,0,12.842-3.582,16.334-8.996l1.309-2.533c1.049-2.357,1.663-4.982,1.663-7.69
		C39.888,9.842,31.239,1.195,20.583,1.195z"/>
	<g opacity="0.3">
		<linearGradient id="SVGID_1_" gradientUnits="userSpaceOnUse" x1="27.2749" y1="11.981" x2="13.6112" y2="31.4387">
			<stop  offset="0" style="stop-color:#E6E7E8"/>
			<stop  offset="1" style="stop-color:#231F20"/>
		</linearGradient>
		<path fill="url(#SVGID_1_)" d="M20.674,33.582c-7.014,0-12.647-5.633-12.647-12.651c0-8.697,8.794-9.584,12.647-9.584
			c3.854,0,12.65,0.887,12.65,9.584C33.325,27.949,27.69,33.582,20.674,33.582z"/>
		<linearGradient id="SVGID_2_" gradientUnits="userSpaceOnUse" x1="10.1309" y1="17.7173" x2="26.4372" y2="32.0473">
			<stop  offset="0" style="stop-color:#E6E7E8"/>
			<stop  offset="1" style="stop-color:#231F20"/>
		</linearGradient>
		<path fill="url(#SVGID_2_)" d="M13.993,17.755c-1.961,0-3.862,0.252-5.676,0.724c-0.176,0.744-0.29,1.547-0.29,2.452
			c0,7.018,5.634,12.651,12.647,12.651c4.938,0,9.182-2.797,11.269-6.896C27.833,21.261,21.323,17.755,13.993,17.755z"/>
	</g>
	<path d="M38.025,20.408c0,9.59-7.851,17.444-17.442,17.444c-9.59,0-17.44-7.854-17.44-17.444c0-9.588,7.851-17.439,17.44-17.439
		C30.174,2.968,38.025,10.82,38.025,20.408z M39.028,28.537c1.096-2.465,1.738-5.209,1.738-8.04
		c0-11.138-9.043-20.178-20.184-20.178S0.401,9.36,0.401,20.498c0,3.106,0.73,6.03,1.918,8.586l1.463,2.467
		c3.654,5.477,9.771,9.039,16.801,9.039c7.122,0,13.426-3.744,17.076-9.404L39.028,28.537z"/>
	<path d="M20.674,9.449c-9.042,0-14.429,4.383-14.429,11.6c0,7.948,6.484,14.428,14.429,14.428c7.946,0,14.431-6.48,14.431-14.428
		C35.105,13.742,29.715,9.449,20.674,9.449z M20.674,32.738c-6.481,0-11.688-5.205-11.688-11.69c0-8.037,8.126-8.857,11.688-8.857
		c3.563,0,11.69,0.82,11.69,8.857C32.365,27.533,27.158,32.738,20.674,32.738z"/>
</g>
</svg>
