<?xml version="1.0" encoding="utf-8"?>
<!-- Generator: Adobe Illustrator 16.0.0, SVG Export Plug-In . SVG Version: 6.00 Build 0)  -->
<!DOCTYPE svg PUBLIC "-//W3C//DTD SVG 1.1//EN" "http://www.w3.org/Graphics/SVG/1.1/DTD/svg11.dtd" [
	<!ENTITY ns_extend "http://ns.adobe.com/Extensibility/1.0/">
	<!ENTITY ns_ai "http://ns.adobe.com/AdobeIllustrator/10.0/">
	<!ENTITY ns_graphs "http://ns.adobe.com/Graphs/1.0/">
	<!ENTITY ns_vars "http://ns.adobe.com/Variables/1.0/">
	<!ENTITY ns_imrep "http://ns.adobe.com/ImageReplacement/1.0/">
	<!ENTITY ns_sfw "http://ns.adobe.com/SaveForWeb/1.0/">
	<!ENTITY ns_custom "http://ns.adobe.com/GenericCustomNamespace/1.0/">
	<!ENTITY ns_adobe_xpath "http://ns.adobe.com/XPath/1.0/">
]>
<svg version="1.1" id="Layer_1" xmlns:x="&ns_extend;" xmlns:i="&ns_ai;" xmlns:graph="&ns_graphs;"
	 xmlns="http://www.w3.org/2000/svg" xmlns:xlink="http://www.w3.org/1999/xlink" x="0px" y="0px" width="39.502px"
	 height="44.177px" viewBox="0 0 39.502 44.177" enable-background="new 0 0 39.502 44.177" xml:space="preserve">
<metadata>
	<sfw  xmlns="&ns_sfw;">
		<slices></slices>
		<sliceSourceBounds  height="43.581" width="38.724" y="-319.514" x="411.356" bottomLeftOrigin="true"></sliceSourceBounds>
	</sfw>
</metadata>
<g>
	<path fill="#FFFFFF" d="M27.535,0.298c-3.096,0-6.006,1.206-8.195,3.396L4.784,18.254c-2.833,2.831-4.395,6.599-4.395,10.609
		s1.562,7.781,4.398,10.617c2.835,2.836,6.605,4.398,10.615,4.398s7.777-1.563,10.613-4.4l10.918-10.918
		c0.893-0.896,1.381-2.08,1.381-3.338c0-1.262-0.492-2.448-1.387-3.338c-0.533-0.534-1.176-0.925-1.877-1.151l0.662-0.663
		c2.189-2.185,3.398-5.094,3.4-8.188c0.002-3.095-1.201-6.005-3.391-8.195C33.535,1.502,30.628,0.298,27.535,0.298L27.535,0.298z"/>
	<path d="M27.535,3.298c2.195,0,4.391,0.837,6.064,2.512c3.352,3.352,3.357,8.783-0.008,12.141L20.253,31.29
		c-1.004,1.004-2.322,1.506-3.639,1.506c-1.318,0-2.637-0.502-3.639-1.506c-2.01-2.01-2.01-5.27,0-7.279l11.441-11.441
		c0.336-0.337,0.775-0.508,1.215-0.508c0,0,0,0,0.002,0c0.438,0,0.875,0.167,1.211,0.504c0.672,0.67,0.672,1.755-0.002,2.428
		L15.402,26.438c-0.672,0.671-0.672,1.758,0,2.426c0.334,0.334,0.773,0.501,1.213,0.501s0.879-0.167,1.213-0.501l13.34-13.34
		c2.016-2.019,2.02-5.272,0.004-7.285c-1.004-1.006-2.32-1.509-3.637-1.509c-1.318,0-2.639,0.505-3.646,1.515L9.332,22.799
		c-3.349,3.347-3.349,8.783,0.003,12.132c1.676,1.678,3.874,2.518,6.069,2.518s4.389-0.838,6.063-2.515l10.916-10.919
		c0.336-0.337,0.777-0.507,1.219-0.507c0.438,0,0.875,0.167,1.211,0.503c0.67,0.668,0.67,1.755,0,2.429l-10.92,10.919
		c-2.346,2.348-5.418,3.521-8.49,3.521c-3.074,0-6.147-1.173-8.494-3.521c-4.693-4.691-4.69-12.301-0.003-16.983L21.46,5.815
		C23.138,4.138,25.337,3.298,27.535,3.298"/>
</g>
</svg>
