<?xml version="1.0" encoding="utf-8"?>
<!-- Generator: Adobe Illustrator 16.0.0, SVG Export Plug-In . SVG Version: 6.00 Build 0)  -->
<!DOCTYPE svg PUBLIC "-//W3C//DTD SVG 1.1//EN" "http://www.w3.org/Graphics/SVG/1.1/DTD/svg11.dtd" [
	<!ENTITY ns_extend "http://ns.adobe.com/Extensibility/1.0/">
	<!ENTITY ns_ai "http://ns.adobe.com/AdobeIllustrator/10.0/">
	<!ENTITY ns_graphs "http://ns.adobe.com/Graphs/1.0/">
	<!ENTITY ns_vars "http://ns.adobe.com/Variables/1.0/">
	<!ENTITY ns_imrep "http://ns.adobe.com/ImageReplacement/1.0/">
	<!ENTITY ns_sfw "http://ns.adobe.com/SaveForWeb/1.0/">
	<!ENTITY ns_custom "http://ns.adobe.com/GenericCustomNamespace/1.0/">
	<!ENTITY ns_adobe_xpath "http://ns.adobe.com/XPath/1.0/">
]>
<svg version="1.1" id="Layer_1" xmlns:x="&ns_extend;" xmlns:i="&ns_ai;" xmlns:graph="&ns_graphs;"
	 xmlns="http://www.w3.org/2000/svg" xmlns:xlink="http://www.w3.org/1999/xlink" x="0px" y="0px" width="165.649px"
	 height="196.148px" viewBox="0 0 165.649 196.148" enable-background="new 0 0 165.649 196.148" xml:space="preserve">
<metadata>
	<sfw  xmlns="&ns_sfw;">
		<slices></slices>
		<sliceSourceBounds  width="165.648" height="196.149" y="-377.518" x="396.951" bottomLeftOrigin="true"></sliceSourceBounds>
	</sfw>
</metadata>
<g>
	<path fill="#E6E7E8" d="M19.45,0c-3.168,0.013-5.734,2.578-5.747,5.746v21.296H5.951c-0.199-0.01-0.398-0.01-0.597,0
		c-3.183,0.235-5.572,3.006-5.337,6.188c0.228,3.084,2.844,5.442,5.935,5.35h7.752v31.944H5.951
		c-3.186-0.071-5.826,2.454-5.897,5.641c-0.07,3.187,2.455,5.826,5.642,5.897c0.085,0.002,0.17,0.002,0.256,0h7.752v31.978H5.951
		c-3.186,0.071-5.712,2.711-5.641,5.898c0.068,3.086,2.554,5.572,5.641,5.64h7.752v31.989H5.951c-0.199-0.01-0.398-0.01-0.597,0
		c-3.183,0.234-5.572,3.005-5.337,6.188c0.228,3.083,2.843,5.441,5.934,5.35h7.752v21.251c-0.012,3.187,2.561,5.778,5.747,5.792
		h140.407c3.187,0.012,5.779-2.562,5.792-5.748c0-0.015,0-0.028,0-0.044V5.746c-0.014-3.186-2.605-5.759-5.792-5.746H19.45z
		 M25.241,11.538H154.11V184.61H25.241v-15.505h7.707c3.186,0.071,5.827-2.454,5.898-5.641c0.07-3.187-2.455-5.826-5.642-5.897
		c-0.085-0.001-0.171-0.001-0.256,0h-7.707v-31.989h7.707c3.186-0.07,5.711-2.71,5.641-5.897c-0.067-3.086-2.554-5.572-5.641-5.641
		h-7.707V82.063h7.707c3.186,0.071,5.827-2.454,5.898-5.641c0.07-3.187-2.455-5.826-5.641-5.897c-0.086-0.002-0.171-0.002-0.257,0
		h-7.707V38.58h7.707c3.186,0.071,5.826-2.454,5.897-5.641s-2.455-5.826-5.641-5.897c-0.085-0.002-0.171-0.002-0.256,0h-7.707
		V11.538z M89.682,51.865c-13.816,0-25.173,11.312-25.173,25.127c0,6.979,2.912,13.306,7.561,17.87
		c-12.745,6.464-21.533,19.666-21.533,34.896v8.767c0.006,3.187,2.595,5.765,5.781,5.757c0.004,0,0.007,0,0.011,0h66.648
		c3.188,0.013,5.779-2.56,5.792-5.746c0-0.005,0-0.008,0-0.011v-8.767c0-15.23-8.755-28.433-21.487-34.896
		c4.634-4.564,7.527-10.894,7.527-17.87C114.809,63.177,103.497,51.865,89.682,51.865z M89.682,63.403
		c7.58,0,13.577,6.009,13.577,13.589s-5.997,13.589-13.577,13.589c-7.581,0-13.635-6.009-13.635-13.589S82.101,63.403,89.682,63.403
		z M89.682,102.164c15.377,0,27.549,12.218,27.549,27.595v2.976H62.087v-2.976C62.087,114.382,74.304,102.164,89.682,102.164
		L89.682,102.164z"/>
</g>
</svg>
