<?xml version="1.0" encoding="utf-8"?>
<!-- Generator: Adobe Illustrator 16.0.0, SVG Export Plug-In . SVG Version: 6.00 Build 0)  -->
<!DOCTYPE svg PUBLIC "-//W3C//DTD SVG 1.1//EN" "http://www.w3.org/Graphics/SVG/1.1/DTD/svg11.dtd" [
	<!ENTITY ns_extend "http://ns.adobe.com/Extensibility/1.0/">
	<!ENTITY ns_ai "http://ns.adobe.com/AdobeIllustrator/10.0/">
	<!ENTITY ns_graphs "http://ns.adobe.com/Graphs/1.0/">
	<!ENTITY ns_vars "http://ns.adobe.com/Variables/1.0/">
	<!ENTITY ns_imrep "http://ns.adobe.com/ImageReplacement/1.0/">
	<!ENTITY ns_sfw "http://ns.adobe.com/SaveForWeb/1.0/">
	<!ENTITY ns_custom "http://ns.adobe.com/GenericCustomNamespace/1.0/">
	<!ENTITY ns_adobe_xpath "http://ns.adobe.com/XPath/1.0/">
]>
<svg version="1.1" id="Layer_1" xmlns:x="&ns_extend;" xmlns:i="&ns_ai;" xmlns:graph="&ns_graphs;"
	 xmlns="http://www.w3.org/2000/svg" xmlns:xlink="http://www.w3.org/1999/xlink" x="0px" y="0px" width="143.625px"
	 height="199.875px" viewBox="0 0 143.625 199.875" enable-background="new 0 0 143.625 199.875" xml:space="preserve">
<metadata>
	<sfw  xmlns="&ns_sfw;">
		<slices></slices>
		<sliceSourceBounds  width="143.625" height="199.875" y="-379.385" x="407.962" bottomLeftOrigin="true"></sliceSourceBounds>
	</sfw>
</metadata>
<path fill="#E6E7E8" d="M56.25,138.08v18.107c0,8.581,6.981,15.563,15.563,15.563s15.563-6.981,15.563-15.563v-18.106
	c1.491-1.187,2.842-2.542,4.022-4.035c4.115-5.206,5.957-11.703,5.186-18.294s-4.063-12.487-9.27-16.603
	c-4.41-3.487-9.936-5.408-15.558-5.408c-1.968,0-3.937,0.233-5.85,0.692c-9.024,2.147-16.027,9.072-18.273,18.069
	C45.23,122.029,48.607,131.983,56.25,138.08z M82.667,112.383c3.451,5.98,1.393,13.653-4.59,17.107
	c-1.898,1.103-3.077,3.151-3.077,5.348v21.35c0,1.758-1.43,3.188-3.188,3.188s-3.188-1.43-3.188-3.188v-21.35
	c0-2.196-1.179-4.245-3.085-5.353c-2.949-1.688-5.111-4.548-5.93-7.845c-0.806-3.244-0.3-6.607,1.423-9.471
	c1.724-2.862,4.459-4.883,7.684-5.684c1.026-0.24,2.077-0.363,3.125-0.366C76.294,106.127,80.441,108.526,82.667,112.383z
	 M110.813,65.659V39c0-21.505-17.495-39-39-39s-39,17.495-39,39v26.659C14.605,66.465,0.02,81.539,0,99.938v65.627
	c0.021,18.898,15.412,34.29,34.313,34.311h75.002c18.896-0.022,34.288-15.414,34.311-34.313V99.936
	C143.603,81.54,129.019,66.466,110.813,65.659z M71.813,12.375c14.681,0,26.625,11.944,26.625,26.625v26.625h-53.25V39
	C45.188,24.319,57.131,12.375,71.813,12.375z M34.314,78h74.998c12.082,0.014,21.924,9.855,21.938,21.938v65.623
	c-0.015,12.083-9.856,21.925-21.938,21.939H34.314c-12.083-0.015-21.925-9.856-21.939-21.938V99.939
	C12.39,87.855,22.231,78.014,34.314,78z"/>
</svg>
