<?xml version="1.0" encoding="utf-8"?>
<!-- Generator: Adobe Illustrator 16.0.0, SVG Export Plug-In . SVG Version: 6.00 Build 0)  -->
<!DOCTYPE svg PUBLIC "-//W3C//DTD SVG 1.1//EN" "http://www.w3.org/Graphics/SVG/1.1/DTD/svg11.dtd" [
	<!ENTITY ns_extend "http://ns.adobe.com/Extensibility/1.0/">
	<!ENTITY ns_ai "http://ns.adobe.com/AdobeIllustrator/10.0/">
	<!ENTITY ns_graphs "http://ns.adobe.com/Graphs/1.0/">
	<!ENTITY ns_vars "http://ns.adobe.com/Variables/1.0/">
	<!ENTITY ns_imrep "http://ns.adobe.com/ImageReplacement/1.0/">
	<!ENTITY ns_sfw "http://ns.adobe.com/SaveForWeb/1.0/">
	<!ENTITY ns_custom "http://ns.adobe.com/GenericCustomNamespace/1.0/">
	<!ENTITY ns_adobe_xpath "http://ns.adobe.com/XPath/1.0/">
]>
<svg version="1.1" id="Layer_1" xmlns:x="&ns_extend;" xmlns:i="&ns_ai;" xmlns:graph="&ns_graphs;"
	 xmlns="http://www.w3.org/2000/svg" xmlns:xlink="http://www.w3.org/1999/xlink" x="0px" y="0px" width="192.776px"
	 height="215.355px" viewBox="0 0 192.776 215.355" enable-background="new 0 0 192.776 215.355" xml:space="preserve">
<metadata>
	<sfw  xmlns="&ns_sfw;">
		<slices></slices>
		<sliceSourceBounds  width="192.777" height="215.355" y="-387.121" x="383.386" bottomLeftOrigin="true"></sliceSourceBounds>
	</sfw>
</metadata>
<g>
	<path fill="#E6E7E8" d="M12.625,49.671v153.674H6.006c-3.319,0-6.006,2.688-6.006,6.008c0,3.313,2.688,6.002,6.006,6.002h12.623
		h42.909h69.695h42.896h12.642c3.318,0,6.006-2.689,6.006-6.002c0-3.32-2.688-6.008-6.006-6.008h-6.635V49.671
		c0-3.313-2.688-6.002-6.007-6.002h-35.082c0.009-0.322,0.05-0.636,0.05-0.956C139.097,19.163,119.935,0,96.384,0
		C72.832,0,53.673,19.163,53.673,42.713c0,0.323,0.043,0.635,0.048,0.956H18.632C15.313,43.672,12.625,46.36,12.625,49.671z
		 M67.545,203.349v-41.202h22.834v41.202H67.545L67.545,203.349z M102.386,203.349v-41.202h22.844v41.202H102.386L102.386,203.349z
		 M96.386,12.009c16.93,0,30.708,13.776,30.708,30.707s-13.777,30.702-30.708,30.702c-16.935,0-30.707-13.771-30.707-30.702
		S79.451,12.009,96.386,12.009z M24.63,55.678h31.066c5.502,17.229,21.654,29.744,40.687,29.744
		c19.03,0,35.188-12.515,40.688-29.744h31.056v147.671h-30.894v-47.204c0-3.318-2.688-6.007-6.002-6.007H61.536
		c-3.314,0-6.001,2.688-6.001,6.007v47.204H24.63V55.678z"/>
	<path fill="#E6E7E8" d="M148.663,135.513c3.314,0,6.002-2.688,6.002-6.006v-28.913c0-3.314-2.688-6.002-6.002-6.002H44.106
		c-3.314,0-6.002,2.688-6.002,6.002v28.915c0,3.318,2.687,6.006,6.002,6.006h104.557V135.513z M84.293,123.507v-16.907h24.178
		v16.907H84.293z M142.659,123.507H120.48v-16.907h22.179V123.507z M50.11,106.601h22.176v16.907H50.11V106.601z"/>
	<path fill="#E6E7E8" d="M80.024,48.715h10.354V59.08c0,3.314,2.688,6.002,6.007,6.002c3.314,0,6.002-2.688,6.002-6.002V48.715
		h10.359c3.313,0,6.002-2.688,6.002-6.002c0-3.319-2.688-6.007-6.002-6.007h-10.359V26.342c0-3.318-2.688-6.006-6.002-6.006
		c-3.319,0-6.007,2.688-6.007,6.006v10.365H80.024c-3.319,0-6.007,2.688-6.007,6.007C74.018,46.027,76.706,48.715,80.024,48.715z"/>
</g>
</svg>
