<?xml version="1.0" encoding="utf-8"?>
<!-- Generator: Adobe Illustrator 16.0.0, SVG Export Plug-In . SVG Version: 6.00 Build 0)  -->
<!DOCTYPE svg PUBLIC "-//W3C//DTD SVG 1.1//EN" "http://www.w3.org/Graphics/SVG/1.1/DTD/svg11.dtd" [
	<!ENTITY ns_extend "http://ns.adobe.com/Extensibility/1.0/">
	<!ENTITY ns_ai "http://ns.adobe.com/AdobeIllustrator/10.0/">
	<!ENTITY ns_graphs "http://ns.adobe.com/Graphs/1.0/">
	<!ENTITY ns_vars "http://ns.adobe.com/Variables/1.0/">
	<!ENTITY ns_imrep "http://ns.adobe.com/ImageReplacement/1.0/">
	<!ENTITY ns_sfw "http://ns.adobe.com/SaveForWeb/1.0/">
	<!ENTITY ns_custom "http://ns.adobe.com/GenericCustomNamespace/1.0/">
	<!ENTITY ns_adobe_xpath "http://ns.adobe.com/XPath/1.0/">
]>
<svg version="1.1" id="Layer_1" xmlns:x="&ns_extend;" xmlns:i="&ns_ai;" xmlns:graph="&ns_graphs;"
	 xmlns="http://www.w3.org/2000/svg" xmlns:xlink="http://www.w3.org/1999/xlink" x="0px" y="0px" width="152.941px"
	 height="107.289px" viewBox="0 0 152.941 107.289" enable-background="new 0 0 152.941 107.289" xml:space="preserve">
<metadata>
	<sfw  xmlns="&ns_sfw;">
		<slices></slices>
		<sliceSourceBounds  width="152.942" height="107.288" y="-335.088" x="403.304" bottomLeftOrigin="true"></sliceSourceBounds>
	</sfw>
</metadata>
<path fill="#E6E7E8" d="M33.438,19.529c7.035-6.514,16.931,4.191,9.891,10.7L18.017,53.632l25.312,23.398
	c7.04,6.508-2.856,17.215-9.891,10.706L2.336,58.978c-3.115-2.871-3.115-7.816,0-10.696L33.438,19.529L33.438,19.529z
	 M109.603,30.229c-7.031-6.508,2.861-17.213,9.9-10.7l31.102,28.752c3.115,2.88,3.115,7.825,0,10.696l-31.102,28.759
	c-7.039,6.509-16.932-4.198-9.9-10.706l25.318-23.398L109.603,30.229L109.603,30.229z M89.405,4.441
	c3.722-8.842,17.172-3.186,13.443,5.661l-39.313,92.721c-1.566,3.711-5.844,5.455-9.556,3.891c-3.715-1.567-5.455-5.845-3.893-9.557
	L89.405,4.441z"/>
</svg>
