<?xml version="1.0" encoding="utf-8"?>
<!-- Generator: Adobe Illustrator 16.0.0, SVG Export Plug-In . SVG Version: 6.00 Build 0)  -->
<!DOCTYPE svg PUBLIC "-//W3C//DTD SVG 1.1//EN" "http://www.w3.org/Graphics/SVG/1.1/DTD/svg11.dtd" [
	<!ENTITY ns_extend "http://ns.adobe.com/Extensibility/1.0/">
	<!ENTITY ns_ai "http://ns.adobe.com/AdobeIllustrator/10.0/">
	<!ENTITY ns_graphs "http://ns.adobe.com/Graphs/1.0/">
	<!ENTITY ns_vars "http://ns.adobe.com/Variables/1.0/">
	<!ENTITY ns_imrep "http://ns.adobe.com/ImageReplacement/1.0/">
	<!ENTITY ns_sfw "http://ns.adobe.com/SaveForWeb/1.0/">
	<!ENTITY ns_custom "http://ns.adobe.com/GenericCustomNamespace/1.0/">
	<!ENTITY ns_adobe_xpath "http://ns.adobe.com/XPath/1.0/">
]>
<svg version="1.1" id="Layer_1" xmlns:x="&ns_extend;" xmlns:i="&ns_ai;" xmlns:graph="&ns_graphs;"
	 xmlns="http://www.w3.org/2000/svg" xmlns:xlink="http://www.w3.org/1999/xlink" x="0px" y="0px" width="161.364px"
	 height="218.182px" viewBox="0 0 161.364 218.182" enable-background="new 0 0 161.364 218.182" xml:space="preserve">
<metadata>
	<sfw  xmlns="&ns_sfw;">
		<slices></slices>
		<sliceSourceBounds  height="199.875" width="143.625" y="-518.21" x="224.142" bottomLeftOrigin="true"></sliceSourceBounds>
	</sfw>
</metadata>
<path fill="#E6E7E8" d="M65.12,147.233v18.107c0,8.581,6.981,15.563,15.563,15.563c8.581,0,15.563-6.981,15.563-15.563v-18.106
	c1.49-1.187,2.842-2.542,4.021-4.035c4.115-5.206,5.957-11.703,5.186-18.294s-4.063-12.487-9.27-16.603
	c-4.41-3.487-9.936-5.408-15.558-5.408c-1.968,0-3.937,0.233-5.85,0.692c-9.024,2.147-16.027,9.072-18.273,18.069
	C54.1,131.183,57.477,141.137,65.12,147.233z M91.536,121.536c3.451,5.98,1.393,13.653-4.59,17.107
	c-1.898,1.103-3.076,3.151-3.076,5.348v21.35c0,1.758-1.43,3.188-3.188,3.188s-3.188-1.43-3.188-3.188v-21.35
	c0-2.196-1.179-4.245-3.085-5.353c-2.949-1.688-5.111-4.548-5.93-7.845c-0.806-3.244-0.3-6.607,1.423-9.471
	c1.724-2.862,4.459-4.883,7.684-5.684c1.026-0.24,2.077-0.363,3.125-0.366C85.163,115.28,89.312,117.68,91.536,121.536z
	 M119.683,74.813V48.153c0-21.505-17.496-39-39-39c-21.505,0-39,17.495-39,39v26.659C23.475,75.619,8.89,90.692,8.87,109.091v65.627
	c0.021,18.898,15.412,34.29,34.313,34.311h75.002c18.896-0.022,34.287-15.414,34.311-34.313v-65.627
	C152.472,90.693,137.888,75.62,119.683,74.813z M80.682,21.528c14.68,0,26.625,11.944,26.625,26.625v26.625h-53.25V48.153
	C54.057,33.472,66.001,21.528,80.682,21.528z M43.184,87.153h74.997c12.082,0.014,21.924,9.855,21.939,21.938v65.623
	c-0.016,12.083-9.857,21.925-21.938,21.939H43.184c-12.083-0.015-21.925-9.856-21.939-21.938v-65.623
	C21.259,97.009,31.101,87.167,43.184,87.153z"/>
</svg>
