<?xml version="1.0" encoding="utf-8"?>
<!-- Generator: Adobe Illustrator 16.0.0, SVG Export Plug-In . SVG Version: 6.00 Build 0)  -->
<!DOCTYPE svg PUBLIC "-//W3C//DTD SVG 1.1//EN" "http://www.w3.org/Graphics/SVG/1.1/DTD/svg11.dtd" [
	<!ENTITY ns_extend "http://ns.adobe.com/Extensibility/1.0/">
	<!ENTITY ns_ai "http://ns.adobe.com/AdobeIllustrator/10.0/">
	<!ENTITY ns_graphs "http://ns.adobe.com/Graphs/1.0/">
	<!ENTITY ns_vars "http://ns.adobe.com/Variables/1.0/">
	<!ENTITY ns_imrep "http://ns.adobe.com/ImageReplacement/1.0/">
	<!ENTITY ns_sfw "http://ns.adobe.com/SaveForWeb/1.0/">
	<!ENTITY ns_custom "http://ns.adobe.com/GenericCustomNamespace/1.0/">
	<!ENTITY ns_adobe_xpath "http://ns.adobe.com/XPath/1.0/">
]>
<svg version="1.1" id="Layer_1" xmlns:x="&ns_extend;" xmlns:i="&ns_ai;" xmlns:graph="&ns_graphs;"
	 xmlns="http://www.w3.org/2000/svg" xmlns:xlink="http://www.w3.org/1999/xlink" x="0px" y="0px" width="225px" height="160.833px"
	 viewBox="0 0 225 160.833" enable-background="new 0 0 225 160.833" xml:space="preserve">
<metadata>
	<sfw  xmlns="&ns_sfw;">
		<slices></slices>
		<sliceSourceBounds  height="150.241" width="211.222" y="-370.871" x="314.222" bottomLeftOrigin="true"></sliceSourceBounds>
	</sfw>
</metadata>
<path fill="#E6E7E8" d="M190.828,5.296H34.175c-15.045,0-27.286,12.239-27.286,27.284v95.674c0,15.045,12.241,27.283,27.286,27.283
	h156.653c15.045,0,27.283-12.238,27.283-27.283V32.58C218.111,17.536,205.873,5.296,190.828,5.296z M19.403,77.736h186.195v50.518
	c0,8.145-6.626,14.77-14.771,14.77H34.175c-8.145,0-14.771-6.625-14.771-14.77V77.736z M205.598,51.191v14.032H19.403V51.191
	H205.598z M34.175,17.81h156.653c8.145,0,14.771,6.626,14.771,14.771v5.834H19.403V32.58C19.403,24.436,26.03,17.81,34.175,17.81z"
	/>
</svg>
