<?xml version="1.0" encoding="utf-8"?>
<!-- Generator: Adobe Illustrator 16.0.0, SVG Export Plug-In . SVG Version: 6.00 Build 0)  -->
<!DOCTYPE svg PUBLIC "-//W3C//DTD SVG 1.1//EN" "http://www.w3.org/Graphics/SVG/1.1/DTD/svg11.dtd" [
	<!ENTITY ns_extend "http://ns.adobe.com/Extensibility/1.0/">
	<!ENTITY ns_ai "http://ns.adobe.com/AdobeIllustrator/10.0/">
	<!ENTITY ns_graphs "http://ns.adobe.com/Graphs/1.0/">
	<!ENTITY ns_vars "http://ns.adobe.com/Variables/1.0/">
	<!ENTITY ns_imrep "http://ns.adobe.com/ImageReplacement/1.0/">
	<!ENTITY ns_sfw "http://ns.adobe.com/SaveForWeb/1.0/">
	<!ENTITY ns_custom "http://ns.adobe.com/GenericCustomNamespace/1.0/">
	<!ENTITY ns_adobe_xpath "http://ns.adobe.com/XPath/1.0/">
]>
<svg version="1.1" id="Layer_1" xmlns:x="&ns_extend;" xmlns:i="&ns_ai;" xmlns:graph="&ns_graphs;"
	 xmlns="http://www.w3.org/2000/svg" xmlns:xlink="http://www.w3.org/1999/xlink" x="0px" y="0px" width="165px" height="117.5px"
	 viewBox="0 0 165 117.5" enable-background="new 0 0 165 117.5" xml:space="preserve">
<metadata>
	<sfw  xmlns="&ns_sfw;">
		<slices></slices>
		<sliceSourceBounds  height="107.289" width="152.941" y="-353.561" x="345.029" bottomLeftOrigin="true"></sliceSourceBounds>
	</sfw>
</metadata>
<path fill="#E6E7E8" d="M39.467,24.635c7.035-6.514,16.931,4.191,9.891,10.7L24.046,58.739l25.312,23.398
	c7.04,6.508-2.856,17.215-9.891,10.706L8.366,64.084c-3.115-2.871-3.115-7.816,0-10.697L39.467,24.635L39.467,24.635z
	 M115.632,35.335c-7.031-6.508,2.861-17.213,9.9-10.7l31.102,28.752c3.115,2.88,3.115,7.826,0,10.697l-31.102,28.759
	c-7.039,6.509-16.932-4.198-9.9-10.706l25.318-23.398L115.632,35.335L115.632,35.335z M95.435,9.547
	c3.722-8.842,17.172-3.186,13.443,5.661L69.564,107.93c-1.566,3.711-5.844,5.455-9.556,3.891c-3.715-1.567-5.455-5.845-3.893-9.557
	L95.435,9.547z"/>
</svg>
