<?xml version="1.0" encoding="utf-8"?>
<!-- Generator: Adobe Illustrator 16.0.0, SVG Export Plug-In . SVG Version: 6.00 Build 0)  -->
<!DOCTYPE svg PUBLIC "-//W3C//DTD SVG 1.1//EN" "http://www.w3.org/Graphics/SVG/1.1/DTD/svg11.dtd" [
	<!ENTITY ns_extend "http://ns.adobe.com/Extensibility/1.0/">
	<!ENTITY ns_ai "http://ns.adobe.com/AdobeIllustrator/10.0/">
	<!ENTITY ns_graphs "http://ns.adobe.com/Graphs/1.0/">
	<!ENTITY ns_vars "http://ns.adobe.com/Variables/1.0/">
	<!ENTITY ns_imrep "http://ns.adobe.com/ImageReplacement/1.0/">
	<!ENTITY ns_sfw "http://ns.adobe.com/SaveForWeb/1.0/">
	<!ENTITY ns_custom "http://ns.adobe.com/GenericCustomNamespace/1.0/">
	<!ENTITY ns_adobe_xpath "http://ns.adobe.com/XPath/1.0/">
]>
<svg version="1.1" id="Layer_1" xmlns:x="&ns_extend;" xmlns:i="&ns_ai;" xmlns:graph="&ns_graphs;"
	 xmlns="http://www.w3.org/2000/svg" xmlns:xlink="http://www.w3.org/1999/xlink" x="0px" y="0px" width="198.425px"
	 height="198.307px" viewBox="0 0 198.425 198.307" enable-background="new 0 0 198.425 198.307" xml:space="preserve">
<metadata>
	<sfw  xmlns="&ns_sfw;">
		<slices></slices>
		<sliceSourceBounds  height="176.09" width="176.09" y="-385.865" x="331.789" bottomLeftOrigin="true"></sliceSourceBounds>
	</sfw>
</metadata>
<g>
	<path fill="#E6E7E8" d="M99.212,11.109c-48.548,0-88.045,39.496-88.045,88.045c0,48.548,39.497,88.045,88.045,88.045
		c48.547,0,88.045-39.497,88.045-88.045C187.258,50.605,147.76,11.109,99.212,11.109z M99.212,172.275
		c-40.319,0-73.121-32.802-73.121-73.121s32.802-73.121,73.121-73.121c40.319,0,73.122,32.802,73.122,73.121
		S139.531,172.275,99.212,172.275z"/>
	<path fill="#8BC53F" d="M139.215,65.113c-2.279,0-4.41,0.875-6.01,2.474l-45.106,45.665L69.864,97.823
		c-1.498-1.268-3.421-1.966-5.415-1.966c-2.548,0-4.942,1.104-6.571,3.028c-1.457,1.722-2.142,3.933-1.927,6.224
		c0.212,2.264,1.274,4.311,2.995,5.766l24.242,20.395c1.512,1.26,3.395,1.926,5.446,1.926c2.28,0,4.41-0.875,6.009-2.473
		l50.571-51.148c3.307-3.308,3.307-8.69,0-11.998C143.627,65.988,141.496,65.113,139.215,65.113z"/>
</g>
</svg>
