<?xml version="1.0" encoding="utf-8"?>
<!-- Generator: Adobe Illustrator 16.0.0, SVG Export Plug-In . SVG Version: 6.00 Build 0)  -->
<!DOCTYPE svg PUBLIC "-//W3C//DTD SVG 1.1//EN" "http://www.w3.org/Graphics/SVG/1.1/DTD/svg11.dtd" [
	<!ENTITY ns_extend "http://ns.adobe.com/Extensibility/1.0/">
	<!ENTITY ns_ai "http://ns.adobe.com/AdobeIllustrator/10.0/">
	<!ENTITY ns_graphs "http://ns.adobe.com/Graphs/1.0/">
	<!ENTITY ns_vars "http://ns.adobe.com/Variables/1.0/">
	<!ENTITY ns_imrep "http://ns.adobe.com/ImageReplacement/1.0/">
	<!ENTITY ns_sfw "http://ns.adobe.com/SaveForWeb/1.0/">
	<!ENTITY ns_custom "http://ns.adobe.com/GenericCustomNamespace/1.0/">
	<!ENTITY ns_adobe_xpath "http://ns.adobe.com/XPath/1.0/">
]>
<svg version="1.1" id="Layer_1" xmlns:x="&ns_extend;" xmlns:i="&ns_ai;" xmlns:graph="&ns_graphs;"
	 xmlns="http://www.w3.org/2000/svg" xmlns:xlink="http://www.w3.org/1999/xlink" x="0px" y="0px" width="230.5px" height="58px"
	 viewBox="0 0 230.5 58" enable-background="new 0 0 230.5 58" xml:space="preserve">
<metadata>
	<sfw  xmlns="&ns_sfw;">
		<slices></slices>
		<sliceSourceBounds  width="228.629" height="56.524" y="-305.854" x="363.821" bottomLeftOrigin="true"></sliceSourceBounds>
	</sfw>
</metadata>
<g>
	<path fill="#231F20" d="M6.076,57.354c-1.5,0-2.751-0.523-3.752-1.57c-1.002-1.047-1.502-2.336-1.502-3.865v-0.031
		c0-1.51,0.503-2.798,1.51-3.865c1.006-1.066,2.265-1.601,3.775-1.601c0.876,0,1.628,0.144,2.258,0.431
		c0.629,0.287,1.246,0.707,1.85,1.261l-0.559,0.573c-1.067-1.036-2.255-1.555-3.564-1.555c-1.268,0-2.328,0.455-3.178,1.366
		c-0.851,0.911-1.276,2.031-1.276,3.36v0.029c0,1.34,0.43,2.467,1.291,3.383c0.86,0.916,1.92,1.375,3.178,1.375
		c0.735,0,1.384-0.137,1.948-0.408c0.563-0.271,1.127-0.685,1.691-1.238l0.529,0.514c-0.614,0.604-1.249,1.063-1.903,1.373
		C7.717,57.197,6.952,57.354,6.076,57.354z"/>
	<path fill="#231F20" d="M12.433,57.172v-10.57h7.52v0.726h-6.735v4.152h6.055v0.726h-6.055v4.242h6.811v0.725H12.433z"/>
	<path fill="#231F20" d="M22.55,57.172v-10.57h0.74l7.293,9.197v-9.197h0.755v10.57H30.75l-7.445-9.393v9.393H22.55z"/>
	<path fill="#231F20" d="M37.409,57.172v-9.845h-3.685v-0.726h8.154v0.726h-3.685v9.845H37.409z"/>
	<path fill="#231F20" d="M44.264,57.172v-10.57h4.439c1.289,0,2.28,0.348,2.975,1.043c0.533,0.533,0.8,1.188,0.8,1.963v0.029
		c0,0.856-0.282,1.541-0.846,2.055c-0.564,0.514-1.314,0.836-2.25,0.966l3.488,4.515h-0.997l-3.368-4.379h-3.458v4.379H44.264z
		 M45.049,52.084h3.564c0.906,0,1.646-0.217,2.22-0.65c0.574-0.432,0.86-1.021,0.86-1.766v-0.031c0-0.714-0.267-1.277-0.8-1.69
		s-1.278-0.619-2.235-0.619h-3.609V52.084z"/>
	<path fill="#231F20" d="M63.849,55.738c-0.997,1.076-2.275,1.615-3.835,1.615s-2.833-0.533-3.82-1.601s-1.479-2.346-1.479-3.835
		v-0.031c0-1.489,0.498-2.772,1.495-3.85c0.997-1.078,2.275-1.616,3.835-1.616s2.833,0.534,3.82,1.601
		c0.987,1.067,1.48,2.346,1.48,3.836v0.029C65.344,53.377,64.845,54.66,63.849,55.738z M56.82,55.254
		c0.86,0.928,1.935,1.391,3.224,1.391s2.358-0.459,3.209-1.375c0.851-0.916,1.276-2.033,1.276-3.352v-0.031
		c0-1.318-0.43-2.44-1.291-3.367c-0.861-0.926-1.936-1.389-3.224-1.389s-2.358,0.458-3.208,1.374
		c-0.851,0.916-1.276,2.034-1.276,3.353v0.029C55.529,53.206,55.959,54.328,56.82,55.254z"/>
	<path fill="#231F20" d="M72.546,57.172v-10.57h3.519c1.641,0,2.987,0.502,4.039,1.503c1.052,1.002,1.578,2.253,1.578,3.753v0.029
		c0,1.511-0.526,2.77-1.578,3.775c-1.052,1.007-2.398,1.51-4.039,1.51H72.546z M76.065,47.327h-2.733v9.12h2.733
		c1.439,0,2.6-0.433,3.48-1.299c0.881-0.865,1.321-1.942,1.321-3.23v-0.031c0-1.288-0.44-2.37-1.321-3.246
		C78.665,47.766,77.504,47.327,76.065,47.327z"/>
	<path fill="#231F20" d="M84.354,57.172v-10.57h7.52v0.726H85.14v4.152h6.055v0.726H85.14v4.242h6.811v0.725H84.354z"/>
	<path fill="#231F20" d="M99.107,57.172v-10.57h0.785v10.57H99.107z"/>
	<path fill="#231F20" d="M103.139,57.172v-10.57h0.74l7.293,9.197v-9.197h0.755v10.57h-0.589l-7.445-9.393v9.393H103.139z"/>
	<path fill="#231F20" d="M117.998,57.172v-9.845h-3.685v-0.726h8.154v0.726h-3.684v9.845H117.998z"/>
	<path fill="#231F20" d="M124.853,57.172v-10.57h7.521v0.726h-6.735v4.152h6.056v0.726h-6.056v4.242h6.811v0.725H124.853z"/>
	<path fill="#231F20" d="M139.816,57.354c-1.62,0-2.912-0.521-3.873-1.563c-0.961-1.043-1.441-2.334-1.441-3.873v-0.031
		c0-1.479,0.488-2.76,1.465-3.842s2.229-1.624,3.76-1.624c0.815,0,1.522,0.116,2.121,0.348c0.6,0.231,1.181,0.579,1.744,1.042
		l-0.514,0.588c-0.966-0.845-2.099-1.268-3.396-1.268c-1.26,0-2.301,0.463-3.127,1.389c-0.824,0.927-1.237,2.039-1.237,3.338v0.029
		c0,1.4,0.407,2.545,1.223,3.436s1.918,1.337,3.308,1.337c0.634,0,1.25-0.113,1.85-0.34c0.599-0.227,1.104-0.517,1.518-0.868v-3.035
		h-3.533v-0.725h4.288v4.076c-0.524,0.463-1.146,0.844-1.865,1.141S140.622,57.354,139.816,57.354z"/>
	<path fill="#231F20" d="M146.809,57.172v-10.57h4.439c1.288,0,2.279,0.348,2.975,1.043c0.533,0.533,0.801,1.188,0.801,1.963v0.029
		c0,0.856-0.283,1.541-0.846,2.055c-0.564,0.514-1.314,0.836-2.25,0.966l3.488,4.515h-0.997l-3.368-4.379h-3.457v4.379H146.809z
		 M147.594,52.084h3.563c0.905,0,1.646-0.217,2.22-0.65c0.574-0.432,0.86-1.021,0.86-1.766v-0.031c0-0.714-0.267-1.277-0.8-1.69
		c-0.534-0.413-1.279-0.619-2.235-0.619h-3.608V52.084z"/>
	<path fill="#231F20" d="M156.82,57.172l4.922-10.645h0.756l4.922,10.645h-0.861l-1.344-2.959h-6.236l-1.344,2.959H156.82z
		 M159.311,53.503h5.572l-2.777-6.116L159.311,53.503z"/>
	<path fill="#231F20" d="M173.838,57.354c-1.5,0-2.751-0.523-3.752-1.57c-1.002-1.047-1.503-2.336-1.503-3.865v-0.031
		c0-1.51,0.503-2.798,1.51-3.865c1.007-1.066,2.265-1.601,3.774-1.601c0.877,0,1.629,0.144,2.258,0.431s1.246,0.707,1.85,1.261
		l-0.559,0.573c-1.066-1.036-2.255-1.555-3.563-1.555c-1.269,0-2.327,0.455-3.179,1.366c-0.851,0.911-1.275,2.031-1.275,3.36v0.029
		c0,1.34,0.43,2.467,1.291,3.383c0.86,0.916,1.92,1.375,3.178,1.375c0.735,0,1.385-0.137,1.949-0.408
		c0.563-0.271,1.127-0.685,1.69-1.238l0.528,0.514c-0.613,0.604-1.248,1.063-1.902,1.373
		C175.479,57.197,174.713,57.354,173.838,57.354z"/>
	<path fill="#231F20" d="M180.301,57.172v-10.57h0.785v10.57H180.301z"/>
	<path fill="#231F20" d="M193,55.738c-0.997,1.076-2.275,1.615-3.836,1.615s-2.834-0.533-3.82-1.601s-1.479-2.346-1.479-3.835
		v-0.031c0-1.489,0.498-2.772,1.495-3.85c0.996-1.078,2.274-1.616,3.835-1.616s2.833,0.534,3.82,1.601
		c0.987,1.067,1.479,2.346,1.479,3.836v0.029C194.494,53.377,193.996,54.66,193,55.738z M185.971,55.254
		c0.86,0.928,1.936,1.391,3.224,1.391s2.358-0.459,3.209-1.375s1.276-2.033,1.276-3.352v-0.031c0-1.318-0.431-2.44-1.291-3.367
		c-0.861-0.926-1.936-1.389-3.225-1.389s-2.357,0.458-3.209,1.374c-0.851,0.916-1.275,2.034-1.275,3.353v0.029
		C184.68,53.206,185.109,54.328,185.971,55.254z"/>
	<path fill="#231F20" d="M197.167,57.172v-10.57h0.74l7.293,9.197v-9.197h0.755v10.57h-0.588l-7.445-9.393v9.393H197.167z"/>
	<path fill="#231F20" d="M209.096,57.172v-10.57h7.521v0.726h-6.735v4.152h6.056v0.726h-6.056v4.242h6.811v0.725H209.096z"/>
	<path fill="#231F20" d="M222.792,57.323c-1.581,0-3-0.563-4.259-1.69l0.514-0.59c0.594,0.555,1.183,0.954,1.767,1.201
		c0.584,0.246,1.259,0.369,2.023,0.369c0.785,0,1.427-0.198,1.925-0.596c0.499-0.398,0.748-0.898,0.748-1.503v-0.03
		c0-0.584-0.209-1.047-0.627-1.389s-1.205-0.629-2.363-0.861c-1.268-0.252-2.18-0.609-2.732-1.072
		c-0.555-0.463-0.831-1.097-0.831-1.902v-0.03c0-0.785,0.322-1.444,0.967-1.978c0.644-0.533,1.454-0.801,2.431-0.801
		c0.745,0,1.396,0.104,1.955,0.31c0.56,0.206,1.115,0.531,1.67,0.974l-0.499,0.619c-0.916-0.795-1.968-1.192-3.155-1.192
		c-0.766,0-1.387,0.19-1.865,0.573s-0.717,0.855-0.717,1.42v0.03c0,0.594,0.213,1.067,0.641,1.419
		c0.428,0.353,1.241,0.649,2.439,0.891c1.218,0.252,2.102,0.607,2.65,1.064c0.548,0.459,0.822,1.075,0.822,1.851v0.03
		c0,0.846-0.327,1.537-0.981,2.076S223.818,57.323,222.792,57.323z"/>
</g>
<g>
	<g>
		<path fill-rule="evenodd" clip-rule="evenodd" fill="#231F20" d="M153.181,15.082h-0.38c-0.783-0.713-1.758-1.259-2.921-1.615
			c-1.164-0.357-2.565-0.523-4.157-0.523c-2.803,0-4.965,0.523-6.532,1.568c-1.591,1.046-2.375,2.495-2.375,4.347
			c0,1.829,0.832,3.301,2.47,4.395c1.64,1.093,3.825,1.639,6.58,1.639c1.425,0,2.756-0.167,4.015-0.499
			c1.234-0.309,2.422-0.832,3.539-1.496l0.403,0.094c-0.095,0.262-0.189,0.523-0.238,0.784c-0.047,0.285-0.094,0.546-0.118,0.832
			c-1.377,0.427-2.731,0.736-4.085,0.949c-1.378,0.214-2.779,0.309-4.253,0.309c-3.847,0-6.863-0.618-9.049-1.853
			c-2.185-1.235-3.277-2.945-3.277-5.059c0-2.138,1.14-3.8,3.443-5.036c2.305-1.21,5.463-1.828,9.478-1.828
			c1.378,0,2.779,0.071,4.157,0.261c1.354,0.166,2.778,0.428,4.251,0.783c-0.237,0.261-0.427,0.57-0.594,0.879
			C153.396,14.321,153.275,14.701,153.181,15.082z"/>
		<path fill-rule="evenodd" clip-rule="evenodd" fill="#231F20" d="M124.964,12.302c0.546,1.117,1.639,2.851,3.277,5.154
			c1.639,2.28,3.706,5.012,6.176,8.146c-0.356-0.047-0.714-0.047-1.069-0.07c-0.38,0-0.76-0.024-1.188-0.024
			c-0.403,0-0.808,0.024-1.163,0.024c-0.357,0.023-0.713,0.023-1.046,0.07c-0.594-1.163-1.615-2.778-3.04-4.917l-0.404-0.594
			l-3.752-5.606l-3.421,4.965c-0.903,1.307-1.639,2.446-2.233,3.42c-0.569,0.998-1.068,1.9-1.448,2.731l-0.095-0.023
			c-0.666-0.047-1.188-0.071-1.521-0.071c-0.214,0-0.404,0.024-0.617,0.024c-0.214,0-0.547,0.023-0.975,0.07
			c2.114-2.494,3.99-4.869,5.653-7.125c1.687-2.257,3.063-4.323,4.156-6.176c0.238,0.023,0.476,0.048,0.689,0.048
			c0.213,0.023,0.428,0.047,0.641,0.047c0.214,0,0.451-0.024,0.666-0.024C124.464,12.35,124.726,12.326,124.964,12.302z"/>
		<path fill-rule="evenodd" clip-rule="evenodd" fill="#231F20" d="M219.996,12.302c0.523,1.117,1.639,2.851,3.254,5.154
			c1.64,2.28,3.706,5.012,6.2,8.146c-0.356-0.047-0.713-0.047-1.093-0.07c-0.356,0-0.76-0.024-1.163-0.024
			c-0.428,0-0.809,0.024-1.164,0.024c-0.38,0.023-0.714,0.023-1.045,0.07c-0.619-1.163-1.616-2.778-3.041-4.917l-0.427-0.594
			l-3.754-5.606l-3.421,4.965c-0.878,1.307-1.614,2.446-2.209,3.42c-0.593,0.998-1.091,1.9-1.472,2.731l-0.095-0.023
			c-0.665-0.047-1.164-0.071-1.521-0.071c-0.19,0-0.403,0.024-0.618,0.024c-0.213,0-0.546,0.023-0.949,0.07
			c2.09-2.494,3.99-4.869,5.652-7.125c1.663-2.257,3.04-4.323,4.133-6.176c0.238,0.023,0.476,0.048,0.689,0.048
			c0.213,0.023,0.427,0.047,0.665,0.047c0.214,0,0.428-0.024,0.641-0.024C219.498,12.35,219.735,12.326,219.996,12.302z"/>
		<path fill-rule="evenodd" clip-rule="evenodd" fill="#231F20" d="M161.731,13.371h-2.137c-0.499,0-1.188,0.023-2.043,0.071
			c-0.855,0.047-1.876,0.119-3.112,0.214c0.072-0.119,0.096-0.237,0.12-0.333c0.022-0.119,0.047-0.237,0.047-0.356
			c0-0.142-0.024-0.261-0.047-0.355c-0.024-0.12-0.073-0.215-0.12-0.31c1.592,0.023,3.159,0.048,4.656,0.071
			c1.496,0.024,2.969,0.048,4.395,0.048c1.662,0,3.206-0.024,4.679-0.048c1.473-0.023,2.921-0.047,4.347-0.071
			c-0.048,0.189-0.095,0.333-0.095,0.428c-0.024,0.095-0.024,0.189-0.024,0.26c0,0.096,0,0.19,0.024,0.309
			c0.022,0.12,0.047,0.238,0.095,0.357c-1.235-0.095-2.28-0.167-3.159-0.214c-0.879-0.048-1.592-0.071-2.138-0.071h-1.972
			c-0.048,0.498-0.095,0.927-0.119,1.282c-0.047,0.356-0.047,0.665-0.047,0.951c0,2.589,0.024,4.679,0.118,6.318
			c0.072,1.638,0.166,2.874,0.334,3.681c-0.286-0.047-0.595-0.07-0.928-0.07c-0.332-0.024-0.688-0.024-1.115-0.024
			c-0.404,0-0.784,0-1.093,0.024c-0.333,0-0.642,0.023-0.95,0.07c0.166-0.879,0.262-1.995,0.332-3.348
			c0.071-1.377,0.096-3.088,0.096-5.155c0-0.926,0-1.663-0.024-2.186C161.827,14.369,161.779,13.869,161.731,13.371z"/>
		<path fill-rule="evenodd" clip-rule="evenodd" fill="#231F20" d="M174.368,25.603c0.143-0.996,0.237-2.042,0.31-3.159
			c0.095-1.092,0.118-2.256,0.118-3.467c0-1.402-0.023-2.636-0.118-3.706c-0.072-1.093-0.167-2.09-0.31-2.969
			c0.356,0.023,0.713,0.048,1.068,0.071c0.333,0,0.665,0.024,0.998,0.024c0.334,0,0.666-0.024,0.997-0.024
			c0.357-0.023,0.714-0.047,1.094-0.071c-0.119,0.831-0.238,1.758-0.286,2.779c-0.071,1.044-0.118,2.328-0.118,3.896
			c0,1.353,0.047,2.588,0.118,3.657c0.048,1.069,0.167,2.067,0.286,2.969c-0.286-0.047-0.594-0.07-0.928-0.07
			c-0.331-0.024-0.712-0.024-1.163-0.024c-0.428,0-0.808,0-1.141,0.024C174.938,25.533,174.652,25.556,174.368,25.603z"/>
		<path fill-rule="evenodd" clip-rule="evenodd" fill="#231F20" d="M188.738,25.603c-0.546-1.14-1.64-2.85-3.277-5.178
			c-1.639-2.28-3.682-4.988-6.176-8.123c0.356,0.023,0.712,0.023,1.093,0.048c0.356,0,0.735,0.023,1.164,0.023
			c0.427,0,0.808-0.023,1.163-0.023c0.381-0.024,0.713-0.024,1.045-0.048c0.618,1.14,1.616,2.755,3.04,4.893l0.403,0.595
			l3.777,5.605l3.398-4.964c0.901-1.283,1.637-2.423,2.231-3.421c0.594-0.997,1.068-1.9,1.473-2.708h0.071
			c0.688,0.048,1.188,0.071,1.545,0.071c0.188,0,0.402,0,0.616-0.023c0.214,0,0.522-0.024,0.951-0.048
			c-2.091,2.471-3.991,4.845-5.653,7.102c-1.663,2.257-3.041,4.324-4.157,6.199c-0.237-0.047-0.451-0.07-0.665-0.07
			c-0.214-0.024-0.451-0.024-0.665-0.024s-0.428,0-0.665,0.024C189.237,25.533,188.999,25.556,188.738,25.603z"/>
		<path fill-rule="evenodd" clip-rule="evenodd" fill="#231F20" d="M202.42,25.603c0.143-0.996,0.237-2.042,0.308-3.159
			c0.072-1.092,0.119-2.256,0.119-3.467c0-1.402-0.047-2.636-0.119-3.706c-0.07-1.093-0.165-2.09-0.308-2.969
			c0.355,0.023,0.713,0.048,1.069,0.071c0.332,0,0.665,0.024,0.996,0.024c0.333,0,0.667-0.024,0.998-0.024
			c0.333-0.023,0.713-0.047,1.094-0.071c-0.119,0.831-0.238,1.758-0.309,2.779c-0.072,1.044-0.096,2.328-0.096,3.896
			c0,1.353,0.023,2.588,0.096,3.657c0.07,1.069,0.189,2.067,0.309,2.969c-0.286-0.047-0.595-0.07-0.927-0.07
			c-0.333-0.024-0.737-0.024-1.165-0.024c-0.427,0-0.807,0-1.139,0.024C202.99,25.533,202.682,25.556,202.42,25.603z"/>
	</g>
	<g>
		<path fill-rule="evenodd" clip-rule="evenodd" fill="#009ADE" d="M88.813,0.83c9.999,0,18.146,8.171,18.146,18.147
			c0,9.975-8.147,18.146-18.146,18.146c-10,0-18.171-8.171-18.171-18.146C70.642,9.001,78.813,0.83,88.813,0.83z"/>
		<path fill-rule="evenodd" clip-rule="evenodd" fill="#FFFFFF" d="M93.942,18.977c-0.784-1.022-1.449-1.971-2.09-2.874
			c-1.781-2.518-2.97-4.395-3.563-5.63c-0.285,0.048-0.546,0.071-0.784,0.071c-0.237,0.024-0.474,0.024-0.712,0.024
			c-0.237,0-0.476,0-0.713-0.024c-0.237,0-0.498-0.047-0.76-0.071c-1.188,2.043-2.684,4.275-4.513,6.746
			c-1.806,2.446-3.849,5.036-6.152,7.744c0.475-0.049,0.831-0.072,1.045-0.072c0.238-0.024,0.476-0.024,0.689-0.024
			c0.356,0,0.927,0.024,1.662,0.071l0.096,0.024c0.403-0.903,0.949-1.877,1.591-2.97c0.642-1.069,1.449-2.304,2.423-3.705
			l3.706-5.416l4.085,6.104H93.942z"/>
		<path fill-rule="evenodd" clip-rule="evenodd" fill="#FFFFFF" d="M83.681,18.977c0.761,1.021,1.426,1.971,2.091,2.873
			c1.758,2.518,2.969,4.395,3.563,5.63c0.262-0.047,0.523-0.071,0.761-0.071c0.261-0.024,0.499-0.024,0.736-0.024
			s0.451,0,0.688,0.024c0.239,0,0.5,0.047,0.762,0.071c1.187-2.042,2.684-4.275,4.512-6.746c1.807-2.446,3.872-5.035,6.152-7.743
			c-0.451,0.048-0.808,0.071-1.045,0.071c-0.237,0.024-0.451,0.024-0.688,0.024c-0.356,0-0.903-0.024-1.64-0.072l-0.095-0.024
			c-0.427,0.903-0.974,1.876-1.592,2.969c-0.664,1.069-1.448,2.304-2.445,3.706l-3.706,5.416l-4.085-6.104H83.681z"/>
	</g>
</g>
</svg>
