<?xml version="1.0" standalone="no"?>
<!DOCTYPE svg PUBLIC "-//W3C//DTD SVG 20010904//EN"
 "http://www.w3.org/TR/2001/REC-SVG-20010904/DTD/svg10.dtd">
<svg version="1.0" xmlns="http://www.w3.org/2000/svg"
 width="512.000000pt" height="512.000000pt" viewBox="0 0 512.000000 512.000000"
 preserveAspectRatio="xMidYMid meet">

<g transform="translate(0.000000,512.000000) scale(0.100000,-0.100000)"
fill="#000000" stroke="none">
<path d="M665 5111 c-69 -17 -126 -64 -159 -129 -19 -36 -4 110 -311 -3032
-96 -987 -178 -1816 -181 -1842 -5 -44 -3 -50 24 -78 l30 -30 151 0 c158 0
191 7 210 44 6 11 50 163 97 336 59 218 92 322 107 338 l20 22 1904 0 c1807 0
1904 -1 1921 -18 11 -11 51 -142 106 -342 49 -179 94 -333 99 -342 6 -9 22
-21 34 -27 30 -14 302 -15 337 -1 14 5 32 22 40 38 13 26 -6 238 -224 2464
-263 2684 -238 2482 -317 2547 -78 65 48 61 -1997 60 -1024 -1 -1874 -4 -1891
-8z m1313 -533 c43 -13 102 -64 117 -103 13 -31 13 -254 0 -274 -3 -6 -14 -11
-25 -11 -12 0 -29 -19 -49 -54 -33 -59 -54 -72 -94 -57 -22 9 -28 7 -38 -10
-6 -11 -9 -22 -7 -24 2 -2 41 -18 87 -35 99 -38 150 -81 186 -155 24 -47 29
-81 49 -302 13 -137 27 -256 32 -264 5 -8 54 -70 108 -138 69 -85 96 -125 87
-130 -7 -4 -71 6 -142 24 l-130 32 -64 73 c-40 45 -67 84 -70 104 -3 17 -12
82 -20 145 -9 63 -17 117 -19 119 -8 7 -15 -33 -37 -203 -12 -93 -24 -173 -28
-177 -7 -8 -621 130 -634 142 -5 4 12 112 38 240 26 127 44 238 41 246 -9 25
-48 14 -166 -45 l-115 -57 -15 -157 c-9 -86 -20 -161 -25 -166 -6 -5 -40 0
-85 13 l-75 22 -3 64 c-1 36 1 129 6 207 11 187 6 181 237 321 99 60 191 116
205 123 16 8 80 15 170 18 l145 6 28 53 c28 52 28 53 13 99 -21 62 -20 148 3
198 25 55 91 112 138 120 21 4 45 8 53 9 18 4 53 -2 98 -16z m-144 -1493 c521
-124 964 -228 987 -231 22 -4 57 -18 77 -32 43 -29 264 -105 592 -203 129 -38
247 -75 263 -81 46 -18 45 -82 -2 -108 -17 -9 -428 17 -571 35 -79 11 -141 47
-244 144 -53 50 -107 97 -119 105 -29 18 -854 212 -864 203 -4 -4 36 -141 89
-305 53 -163 99 -310 102 -327 3 -16 2 -203 -2 -415 -6 -344 -9 -389 -25 -413
-59 -90 -200 -77 -227 21 -5 20 -17 197 -25 392 l-15 355 -126 318 c-69 175
-129 315 -132 312 -4 -4 -25 -154 -48 -333 -40 -323 -42 -331 -133 -681 -51
-195 -100 -365 -108 -378 -22 -33 -64 -53 -114 -53 -33 0 -47 6 -75 34 -30 30
-34 41 -34 84 0 27 31 195 69 373 l68 324 8 365 c4 201 4 397 0 437 l-7 72
-177 42 c-219 52 -241 62 -241 115 0 22 38 54 64 54 13 0 450 -101 970 -225z
m1865 -894 c10 -6 154 -150 321 -321 292 -301 302 -312 296 -343 -3 -18 -17
-42 -32 -54 l-25 -23 -800 0 c-589 0 -806 3 -822 12 -46 24 -60 71 -34 113 16
27 376 369 404 383 37 20 57 14 129 -41 82 -64 96 -70 131 -56 14 5 96 79 182
163 86 84 165 158 176 164 25 14 51 15 74 3z"/>
<path d="M765 613 c-13 -13 -16 -27 -12 -62 4 -25 9 -104 13 -174 5 -91 11
-133 21 -143 11 -11 46 -14 151 -14 75 0 144 5 152 10 16 10 28 117 29 277 1
127 7 123 -184 123 -130 0 -156 -3 -170 -17z"/>
<path d="M4005 610 c-17 -18 -17 -34 -11 -182 9 -220 -2 -208 180 -208 124 0
145 2 158 18 11 12 18 61 26 182 14 225 27 210 -177 210 -145 0 -159 -2 -176
-20z"/>
</g>
</svg>
